<?xml version="1.0" encoding="utf-8"?>
<!-- Generator: Adobe Illustrator 19.0.0, SVG Export Plug-In . SVG Version: 6.00 Build 0)  -->
<svg version="1.1" id="Layer_1" xmlns="http://www.w3.org/2000/svg" xmlns:xlink="http://www.w3.org/1999/xlink" x="0px" y="0px"
	 viewBox="0 0 512 512" style="enable-background:new 0 0 512 512;" xml:space="preserve">
<style type="text/css">
	.st0{fill:#E0E0D1;}
	.st1{fill:#BAB9AE;}
	.st2{fill:#4F5D73;}
	.st3{fill:#C75C5C;}
	.st4{fill:#465162;}
	.st5{fill:#9C9A92;}
	.st6{fill:#3F4755;}
	.st7{fill:#A65050;}
	.st8{fill:#F5CF87;}
</style>
<g id="XMLID_1_">
	<path id="XMLID_3_" class="st0" d="M256,0c141,0,256,115,256,256S397,512,256,512S0,397,0,256S115,0,256,0"/>
	<path id="XMLID_4_" class="st1" d="M111.9,381.2v18.9c0,8.7,7.1,15.8,15.8,15.8h15.8c8.7,0,15.8-7.1,15.8-15.8v-15.8
		c0,8.7-7.1,15.8-15.8,15.8h-15.8c-8.7,0-15.8-7.1-15.8-15.8V381.2L111.9,381.2"/>
	<path id="XMLID_5_" class="st1" d="M400.1,384.4c0,8.7-7.1,15.8-15.8,15.8h-15.8c-8.7,0-15.8-7.1-15.8-15.8l0,0v15.8
		c0,8.7,7.1,15.8,15.8,15.8h15.8c8.7,0,15.8-7.1,15.8-15.8V384.4"/>
	<path id="XMLID_6_" class="st2" d="M159.9,384.4c0,8.7-7.1,15.8-15.8,15.8h-15.8c-8.7,0-15.8-7.1-15.8-15.8v-88.2
		c0-8.7,7.1-15.8,15.8-15.8h15.8c8.7,0,15.8,7.1,15.8,15.8V384.4"/>
	<path id="XMLID_7_" class="st2" d="M400.1,384.4c0,8.7-7.1,15.8-15.8,15.8h-15.8c-8.7,0-15.8-7.1-15.8-15.8v-88.2
		c0-8.7,7.1-15.8,15.8-15.8h15.8c8.7,0,15.8,7.1,15.8,15.8V384.4"/>
	<path id="XMLID_11_" class="st1" d="M398.6,242.6c-0.8,2.4-1.6,4.7-2.4,7.1c0.8,0,2.4,0.8,3.2,0.8c0-0.8,0-1.6,0-2.4L398.6,242.6
		 M112.6,241l-0.8,3.9v3.2c0,0.8,0,1.6,0,2.4c0.8,0,2.4-0.8,3.2-0.8C114.2,246.5,113.4,244.2,112.6,241 M336.3,136.3H175.7
		c-2.4,0-3.2,0-4.7,0.8c-1.6,0.8-3.2,1.6-4.7,3.2c-3.2,3.2-5.5,8.7-7.1,15l-15.8,78c0,2.4,0.8,4.7,1.6,6.3l13.4-67.7
		c2.4-6.3,7.1-19.7,16.5-19.7h159.9c9.5,0,14.2,13.4,16.5,19.7l13.4,67.7c0.8-1.6,1.6-3.9,1.6-6.3l-15.8-78
		c-0.8-4.7-3.2-8.7-4.7-11.8c-2.4-3.2-4.7-5.5-6.3-6.3C339.5,136.3,337.9,136.3,336.3,136.3"/>
	<path id="XMLID_12_" class="st3" d="M384.4,232.4h-15.8c0,4.7-1.6,8.7-4.7,11c-3.2,3.2-7.1,4.7-11,4.7h-193c-4.7,0-8.7-1.6-11-4.7
		c-3.2-3.2-4.7-7.1-4.7-11h-15.8l15.8,3.2l15.8-80.3l-15.8-3.2l15.8,3.9c1.6-6.3,3.9-11.8,7.1-15c1.6-1.6,3.2-3.2,4.7-3.2
		c1.6-0.8,2.4-0.8,4.7-0.8h159.9c2.4,0,3.2,0,4.7,0.8c2.4,0.8,4.7,3.2,6.3,6.3c2.4,3.2,3.9,7.9,5.5,12.6l15.8-3.9l-15.8,3.2
		l15.8,80.3L384.4,232.4h-15.8H384.4l15.8-3.2l-15.8-80.3l0,0c-2.4-10.2-7.1-19.7-14.2-28.4c-3.9-3.9-8.7-7.9-14.2-11
		s-11.8-4.7-18.9-4.7H175.7c-7.1,0-13.4,1.6-18.9,4.7c-8.7,3.9-15,11-18.9,17.3c-4.7,7.1-7.1,14.2-9.5,22.1l0,0l-16.5,81.9v1.6
		c0,26.8,21.3,48,48,48h192.2c26.8,0,48-21.3,48-48v-1.6v-1.6L384.4,232.4"/>
	<polyline id="XMLID_13_" class="st1" points="352.1,296.2 352.1,296.2 159.9,296.2 159.9,296.2 159.9,296.2 159.9,352.1 
		352.1,352.1 352.1,311.9 352.1,311.9 352.1,296.2 352.1,296.2 	"/>
	<path id="XMLID_14_" class="st4" d="M124.5,280.4c-7.1,1.6-12.6,7.9-12.6,15.8v40.2c0,8.7,7.1,15.8,15.8,15.8h32.3v-55.9l0,0
		C145.7,296.2,133.1,289.9,124.5,280.4"/>
	<path id="XMLID_15_" class="st4" d="M387.5,280.4c-8.7,9.5-21.3,15.8-35.4,15.8l0,0v15.8v40.2h32.3c8.7,0,15.8-7.1,15.8-15.8v-40.2
		C400.1,288.3,394.6,282,387.5,280.4"/>
	<path id="XMLID_16_" class="st5" d="M384.4,279.6H127.6c-0.8,0-2.4,0-3.2,0l0,0c0.8,0,2.4,0,3.2,0h15.8c8.7,0,15.8,7.1,15.8,15.8
		l0,0h192.2l0,0c0-8.7,7.1-15.8,15.8-15.8H384.4c0.8,0,2.4,0,3.2,0l0,0C386,280.4,385.2,279.6,384.4,279.6"/>
	<path id="XMLID_17_" class="st6" d="M144.1,279.6h-15.8c-0.8,0-2.4,0-3.2,0c8.7,9.5,21.3,15.8,35.4,15.8
		C159.9,287.5,152.8,279.6,144.1,279.6"/>
	<path id="XMLID_18_" class="st6" d="M384.4,279.6h-15.8c-8.7,0-15.8,7.1-15.8,15.8c14.2,0,26.8-6.3,35.4-15.8
		C386,280.4,385.2,279.6,384.4,279.6"/>
	<path id="XMLID_21_" class="st1" d="M400.1,250.5c-0.8,11-5.5,22.1-12.6,29.9c7.1,1.6,12.6,7.9,12.6,15.8v40.2l0,0v44.9
		c18.9-6.3,32.3-24.4,32.3-44.9v-40.2C431.7,274.9,418.3,257.6,400.1,250.5 M111.9,250.5c-18.9,6.3-32.3,24.4-32.3,44.9v40.2
		c0,20.5,13.4,38.6,32.3,44.9v-69.3l0,0v-15.8l0,0c0-7.9,5.5-14.2,12.6-15.8C117.4,272.5,112.6,262.3,111.9,250.5"/>
	<path id="XMLID_22_" class="st5" d="M397,249.7c-7.1,18.1-24.4,29.9-44.9,29.9H159.9c-20.5,0-37.8-12.6-44.9-29.9
		c-0.8,0-2.4,0.8-3.2,0.8c0.8,11,5.5,22.1,12.6,29.9c0.8,0,2.4,0,3.2,0h256c0.8,0,2.4,0,3.2,0c7.1-7.9,11.8-18.1,12.6-29.9
		C398.6,250.5,397.8,249.7,397,249.7"/>
	<path id="XMLID_23_" class="st7" d="M384.4,248.1h-32.3l0,0H159.9l0,0h-32.3c-4.7,0-8.7,0.8-12.6,1.6c7.1,18.1,24.4,29.9,44.9,29.9
		h192.2c20.5,0,37.8-12.6,44.9-29.9C392.3,248.9,388.3,248.1,384.4,248.1"/>
	<polyline id="XMLID_24_" class="st1" points="352.1,352.1 159.9,352.1 159.9,384.4 352.1,384.4 352.1,352.1 	"/>
	<path id="XMLID_25_" class="st4" d="M111.9,296.2L111.9,296.2v15.8v69.3c4.7,1.6,10.2,3.2,15.8,3.2h32.3v-32.3h-32.3
		c-8.7,0-15.8-7.1-15.8-15.8L111.9,296.2"/>
	<path id="XMLID_26_" class="st4" d="M400.1,336.3c0,8.7-7.1,15.8-15.8,15.8h-32.3v32.3h32.3c5.5,0,11-0.8,15.8-3.2V336.3"/>
	<path id="XMLID_27_" class="st3" d="M415.9,319.8c0,17.3-14.2,32.3-32.3,32.3h-256c-17.3,0-32.3-14.2-32.3-32.3v-40.2
		c0-17.3,14.2-32.3,32.3-32.3h256c17.3,0,32.3,14.2,32.3,32.3C415.9,279.6,415.9,319.8,415.9,319.8z"/>
	<path id="XMLID_28_" class="st3" d="M415.9,319.8h-15.8c0,4.7-1.6,8.7-4.7,11c-3.2,3.2-7.1,4.7-11,4.7H127.6c-4.7,0-8.7-1.6-11-4.7
		c-3.2-3.2-4.7-7.1-4.7-11v-40.2c0-4.7,1.6-8.7,4.7-11c3.2-3.2,7.1-4.7,11-4.7h256c4.7,0,8.7,1.6,11,4.7c3.2,3.2,4.7,7.1,4.7,11
		v40.2H415.9h15.8v-40.2c0-26.8-21.3-48-48-48h-256c-26.8,0-48,21.3-48,48v40.2c0,26.8,21.3,48,48,48h256c26.8,0,48-21.3,48-48
		H415.9z"/>
	<path id="XMLID_29_" class="st8" d="M167.8,304c0,17.3-14.2,32.3-32.3,32.3s-32.3-14.2-32.3-32.3c0-17.3,14.2-32.3,32.3-32.3
		S167.8,286.7,167.8,304z"/>
	<path id="XMLID_30_" class="st3" d="M167.8,304h-7.9c0,6.3-2.4,12.6-7.1,17.3c-4.7,4.7-10.2,7.1-17.3,7.1c-6.3,0-12.6-2.4-17.3-7.1
		c-4.7-4.7-7.1-10.2-7.1-17.3c0-6.3,2.4-12.6,7.1-17.3c4.7-4.7,10.2-7.1,17.3-7.1c6.3,0,12.6,2.4,17.3,7.1
		c4.7,4.7,7.1,10.2,7.1,17.3H167.8h7.9c0-22.1-18.1-40.2-40.2-40.2S95.3,282,95.3,304c0,22.1,18.1,40.2,40.2,40.2
		s40.2-18.1,40.2-40.2H167.8z"/>
	<path id="XMLID_31_" class="st8" d="M408,304c0,17.3-14.2,32.3-32.3,32.3c-17.3,0-32.3-14.2-32.3-32.3c0-17.3,14.2-32.3,32.3-32.3
		C393.8,271.8,408,286.7,408,304z"/>
	<path id="XMLID_32_" class="st3" d="M408,304h-7.9c0,6.3-2.4,12.6-7.1,17.3c-4.7,4.7-10.2,7.1-17.3,7.1c-6.3,0-12.6-2.4-17.3-7.1
		c-4.7-4.7-7.1-10.2-7.1-17.3c0-6.3,2.4-12.6,7.1-17.3c4.7-4.7,10.2-7.1,17.3-7.1c6.3,0,12.6,2.4,17.3,7.1s7.1,10.2,7.1,17.3H408
		h7.9c0-22.1-18.1-40.2-40.2-40.2c-22.1,0-40.2,18.1-40.2,40.2c0,22.1,18.1,40.2,40.2,40.2s40.2-18.1,40.2-40.2H408z"/>
</g>
</svg>
